#!OML:ASF X:\für Bonn\!DataBase\2005_08_11_Bastian_Final\c3d\Bastian.ASF
:FULLY-SPECIFIED
:DEGREES
321
root -2.53259 1.81535 21.0094 -979.813 -1.05061 -175.363
lowerback 61.3274 5.21735 12.5082
upperback 24.9958 -5.17468 4.33061
thorax 7.85598 -10.4505 -0.102232
lowerneck -10.5705 7.58109 -4.41028
upperneck -0.259547 10.8898 7.67364
head 1.03917 5.7854 3.66951
rclavicle -1.25234e-014 -4.37326e-015
rhumerus -64.6021 23.6111 -102.869
rradius 51.3893
rwrist -8.65924
rhand -29.1699 -10.7425
rfingers 7.12502
rthumb -2.51576 -40.7074
lclavicle -1.25234e-014 -4.37326e-015
lhumerus -47.1334 1.80098 73.1587
lradius 45.0312
lwrist 53.5735
lhand -27.0661 -8.59786
lfingers 7.12502
lthumb -0.483949 21.3813
rfemur -33.3887 7.43741 24.5584
rtibia 46.4685
rfoot 3.759 -8.01037
rtoes -12.898
lfemur -44.8348 11.0723 -17.3721
ltibia 75.9579
lfoot 13.0871 8.94612
ltoes 17.6313
322
root -2.53153 1.79569 21.0097 -979.603 -1.05887 -175.453
lowerback 61.1132 5.23221 12.4591
upperback 25.0517 -5.19009 4.3105
thorax 7.91874 -10.4411 -0.119071
lowerneck -10.8902 7.55874 -4.38678
upperneck -0.158119 10.8664 7.66396
head 1.13258 5.7817 3.6867
rclavicle 9.93923e-016 -3.57812e-015
rhumerus -65.1564 23.5136 -102.888
rradius 52.291
rwrist -8.53226
rhand -29.3462 -10.7759
rfingers 7.12502
rthumb -2.68604 -40.7387
lclavicle 9.93923e-016 -3.57812e-015
lhumerus -47.5108 1.65074 73.1811
lradius 45.7379
lwrist 53.84
lhand -27.1376 -8.58254
lfingers 7.12502
lthumb -0.552956 21.3965
rfemur -33.1294 7.65639 24.5646
rtibia 45.6526
rfoot 3.75011 -8.03304
rtoes -12.6951
lfemur -45.2143 11.1388 -17.4525
ltibia 76.0543
lfoot 13.096 8.96308
ltoes 17.6305
323
root -2.53044 1.77732 21.0106 -979.436 -1.08969 -175.54
lowerback 60.9175 5.25339 12.4196
upperback 25.1195 -5.2016 4.29935
thorax 7.99816 -10.4354 -0.133984
lowerneck -11.1357 7.52913 -4.34068
upperneck -0.114917 10.8327 7.63729
head 1.19667 5.77142 3.68671
rclavicle -4.07509e-015 3.97569e-015
rhumerus -65.7334 23.4164 -102.908
rradius 53.2522
rwrist -8.46388
rhand -29.5358 -10.8443
rfingers 7.12502
rthumb -2.86915 -40.8048
lclavicle -4.07509e-015 3.97569e-015
lhumerus -47.8733 1.42065 73.2415
lradius 46.4614
lwrist 54.1166
lhand -27.3044 -8.59957
lfingers 7.12502
lthumb -0.714127 21.379
rfemur -32.8355 7.83794 24.5547
rtibia 44.8828
rfoot 3.71213 -8.06225
rtoes -12.3581
lfemur -45.5191 11.1918 -17.5483
ltibia 76.1215
lfoot 13.0739 8.96411
ltoes 17.7316
324
root -2.52927 1.75934 21.0131 -979.356 -1.12045 -175.605
lowerback 60.7686 5.26221 12.4158
upperback 25.2091 -5.24363 4.30896
thorax 8.11131 -10.4629 -0.137739
lowerneck -11.4317 7.50695 -4.32592
upperneck -0.0360634 10.8118 7.6291
head 1.27806 5.76878 3.70374
rclavicle -2.15681e-014 1.19271e-015
rhumerus -66.2989 23.3576 -102.908
rradius 54.2769
rwrist -8.37443
rhand -29.5692 -10.9738
rfingers 7.12502
rthumb -2.90145 -40.9338
lclavicle -2.15681e-014 1.19271e-015
lhumerus -48.2118 1.25029 73.3303
lradius 47.1933
lwrist 54.2897
lhand -27.4624 -8.58703
lfingers 7.12502
lthumb -0.866641 21.391
rfemur -32.4626 7.9595 24.5734
rtibia 44.1448
rfoot 3.73347 -8.01772
rtoes -12.3588
lfemur -45.7253 11.2119 -17.6212
ltibia 76.1756
lfoot 13.1102 8.87965
ltoes 17.4982
325
root -2.52697 1.7425 21.0154 -979.311 -1.1717 -175.705
lowerback 60.6088 5.30246 12.4027
upperback 25.3348 -5.27642 4.31394
thorax 8.26786 -10.4938 -0.155117
lowerneck -11.6446 7.47232 -4.28613
upperneck -0.0419307 10.7759 7.5961
head 1.32048 5.75711 3.69848
rclavicle -1.25234e-014 1.78906e-014
rhumerus -66.8668 23.3203 -102.949
rradius 55.356
rwrist -8.38351
rhand -29.6585 -11.1348
rfingers 7.12502
rthumb -2.9877 -41.0936
lclavicle -1.25234e-014 1.78906e-014
lhumerus -48.5268 1.06429 73.3928
lradius 47.9713
lwrist 54.4705
lhand -27.6845 -8.49656
lfingers 7.12502
lthumb -1.08117 21.4804
rfemur -32.0679 8.0926 24.5721
rtibia 43.4516
rfoot 3.77814 -7.9363
rtoes -12.4512
lfemur -45.8587 11.2738 -17.7018
ltibia 76.209
lfoot 13.1122 8.83322
ltoes 17.7903
